<svg width="608" height="146" viewBox="0 0 608 146" fill="none" xmlns="http://www.w3.org/2000/svg">
<path d="M133.965 70.396C133.959 70.6044 133.945 70.8121 133.936 71.0197C133.919 71.443 133.899 71.8671 133.873 72.2888C133.856 72.5358 133.835 72.7813 133.815 73.0267C133.786 73.4106 133.756 73.7937 133.719 74.1759C133.694 74.435 133.664 74.6942 133.638 74.9541C133.597 75.3219 133.557 75.6905 133.507 76.0574C133.473 76.3222 133.435 76.5854 133.397 76.8493C133.345 77.2098 133.291 77.5736 133.236 77.9285C133.193 78.1967 133.148 78.4623 133.101 78.7252C133.038 79.0836 132.971 79.4409 132.9 79.7971C132.849 80.0579 132.797 80.3186 132.739 80.5785C132.658 80.9415 132.578 81.3028 132.497 81.6649C132.44 81.9152 132.384 82.1663 132.322 82.4158C132.23 82.7916 132.132 83.1658 132.033 83.5424C131.972 83.7758 131.912 84.0092 131.847 84.241C131.732 84.6546 131.606 85.065 131.485 85.4763C131.427 85.6646 131.374 85.8545 131.315 86.0396C131.127 86.6383 130.93 87.2344 130.724 87.8277L130.717 87.8471C130.513 88.4308 130.3 89.0113 130.076 89.5885C130 89.7833 129.92 89.9756 129.842 90.1696C129.688 90.5575 129.533 90.9454 129.37 91.33C129.272 91.5594 129.17 91.7871 129.07 92.0157C128.918 92.3617 128.766 92.707 128.608 93.0498C128.497 93.2912 128.381 93.5326 128.266 93.7684C128.105 94.0968 127.95 94.4243 127.787 94.7502C127.666 94.9916 127.541 95.2331 127.416 95.4745C127.325 95.6507 127.23 95.8246 127.138 96H115V41H127.136C127.229 41.1754 127.324 41.3509 127.416 41.5271C127.54 41.7685 127.664 42.01 127.785 42.2474C127.946 42.5741 128.107 42.9022 128.269 43.2316C128.383 43.473 128.498 43.708 128.609 43.9486C128.77 44.2914 128.92 44.6375 129.072 44.9835C129.172 45.2113 129.275 45.439 129.372 45.6684C129.533 46.0514 129.688 46.4377 129.842 46.824C129.923 47.0195 130.004 47.2143 130.078 47.4107C130.299 47.9826 130.511 48.558 130.714 49.1369L130.727 49.1723C130.933 49.7624 131.13 50.3577 131.317 50.958C131.377 51.1479 131.43 51.3395 131.488 51.5294C131.611 51.9382 131.73 52.3478 131.849 52.7598C131.914 52.9932 131.973 53.2274 132.035 53.4616C132.134 53.8342 132.232 54.2068 132.324 54.5818C132.385 54.8329 132.442 55.0848 132.5 55.3367C132.58 55.6964 132.661 56.0609 132.742 56.4183C132.796 56.679 132.848 56.9413 132.903 57.2037C132.973 57.5594 133.04 57.9159 133.103 58.2732C133.15 58.5388 133.195 58.8035 133.238 59.0699C133.297 59.4288 133.351 59.7886 133.399 60.1491C133.437 60.413 133.475 60.6762 133.509 60.941C133.557 61.3079 133.599 61.6765 133.64 62.0443C133.669 62.3042 133.698 62.5633 133.721 62.8225C133.758 63.2047 133.789 63.5878 133.818 63.9717C133.837 64.2131 133.859 64.4626 133.875 64.7096C133.902 65.1313 133.921 65.5554 133.939 65.9787C133.948 66.1863 133.961 66.394 133.968 66.6024C133.988 67.2333 134 67.8659 134 68.4992C134 69.1325 133.985 69.7651 133.965 70.396Z" fill="#2E23FB"/>
<path d="M95.7098 96C80.9584 96 69 83.6878 69 68.5C69 53.3122 80.9584 41 95.7098 41H104V96H95.7098Z" fill="#2E23FB"/>
<path d="M74.7141 10C91.7771 10.0524 107.961 17.4524 119 30.25H95.3015C76.6415 30.274 60.8526 43.8193 58.2925 62H17C19.6665 32.5917 44.6973 10.0392 74.7141 10Z" fill="#2E23FB"/>
<path d="M74.7132 126C44.6968 125.961 19.6665 103.408 17 74H58.2934C60.8535 92.1807 76.6422 105.726 95.3019 105.75H119C107.961 118.548 91.7764 125.948 74.7132 126Z" fill="#2E23FB"/>
<path fill-rule="evenodd" clip-rule="evenodd" d="M166.927 30.651V109.476H181.341V78.959H196.093C202.549 78.9603 207.841 77.8533 211.97 75.638C215.823 73.6914 219.001 70.6308 221.091 66.854C223.055 63.1647 224.062 59.0414 224.019 54.862C224.083 50.5408 223.036 46.2756 220.979 42.475C218.859 38.7092 215.637 35.6831 211.745 33.804C207.616 31.702 202.398 30.651 196.093 30.651H166.927ZM195.192 67.248H181.341V42.362H195.192C200.221 42.3613 203.843 43.4687 206.058 45.684C208.273 47.8993 209.38 50.9587 209.38 54.862C209.38 58.69 208.273 61.7113 206.058 63.926C203.843 66.1407 200.221 67.248 195.192 67.248Z" fill="#2E23FB"/>
<path d="M234.942 109.476V28.4H249.356V109.477L234.942 109.476Z" fill="#2E23FB"/>
<path d="M285.05 110.827C278.069 110.827 272.682 108.65 268.891 104.296C265.1 99.942 263.203 93.561 263.2 85.153V53.623H277.5V83.8C277.5 88.6047 278.476 92.283 280.429 94.835C282.382 97.387 285.459 98.6633 289.662 98.664C293.417 98.7618 297.023 97.1956 299.515 94.385C302.105 91.533 303.4 87.554 303.4 82.448V53.623H317.814V109.476H305.094L303.968 100.017C302.263 103.297 299.668 106.029 296.48 107.9C293.01 109.905 289.056 110.917 285.05 110.827Z" fill="#2E23FB"/>
<path fill-rule="evenodd" clip-rule="evenodd" d="M356.217 92.81C353.674 92.8304 351.139 92.528 348.672 91.91L344.506 96.077C346.147 96.8749 347.89 97.4432 349.686 97.766C351.862 98.216 355.39 98.6663 360.271 99.117C367.703 99.793 373.108 101.557 376.487 104.41C379.866 107.263 381.555 111.204 381.554 116.233C381.548 119.557 380.613 122.813 378.854 125.633C376.832 128.791 373.938 131.295 370.521 132.84C366.765 134.68 361.958 135.6 356.1 135.6C348.142 135.6 341.724 134.117 336.845 131.152C331.966 128.187 329.526 123.739 329.525 117.808C329.525 112.778 331.965 108.424 336.845 104.746C335.488 104.151 334.187 103.435 332.959 102.606C331.932 101.907 330.971 101.116 330.088 100.242V97.651L339.888 87.291C335.598 83.6104 333.198 78.1904 333.356 72.54C333.256 65.1475 337.359 58.3385 343.942 54.973C347.748 53.0745 351.965 52.147 356.216 52.273C359.198 52.2457 362.164 52.7016 365 53.623H386.171V62.406L376.599 63.082C379.754 69.3126 379.585 76.7079 376.149 82.788C374.288 85.9218 371.573 88.4608 368.322 90.108C364.569 91.9867 360.412 92.9146 356.217 92.81ZM342.7 116.345C342.633 119.017 344.159 121.473 346.585 122.595C349.536 124.066 352.805 124.781 356.1 124.678C359.18 124.814 362.232 124.049 364.884 122.478C366.995 121.262 368.286 119.003 368.262 116.567C368.304 114.638 367.5 112.786 366.062 111.499C364.595 110.148 361.686 109.322 357.335 109.022C354.256 108.796 351.403 108.458 348.777 108.008C346.925 108.928 345.323 110.28 344.104 111.95C343.208 113.242 342.719 114.773 342.7 116.345ZM356.215 81.7751C358.84 81.8749 361.414 81.0364 363.476 79.41C365.311 77.6414 366.348 75.2023 366.348 72.6535C366.348 70.1047 365.311 67.6656 363.476 65.897C361.413 64.2702 358.838 63.4317 356.213 63.532C353.532 63.4017 350.894 64.2412 348.781 65.897C346.979 67.6835 345.965 70.1159 345.965 72.6535C345.965 75.1911 346.979 77.6235 348.781 79.41C350.894 81.0664 353.533 81.906 356.215 81.7751Z" fill="#2E23FB"/>
<path d="M419.725 110.827C415.252 110.918 410.807 110.095 406.663 108.406C403.143 106.969 400.044 104.664 397.654 101.706C395.4 98.8499 393.995 95.417 393.6 91.8H408.126C408.619 94.0448 409.922 96.0292 411.786 97.374C414.023 98.9909 416.741 99.8043 419.499 99.682C422.652 99.682 424.961 99.044 426.425 97.768C427.784 96.7113 428.592 95.0971 428.625 93.376C428.785 91.2221 427.499 89.2229 425.472 88.476C422.618 87.3929 419.68 86.5454 416.688 85.942C414.288 85.418 411.848 84.78 409.369 84.028C406.999 83.324 404.715 82.3608 402.556 81.156C400.563 80.0596 398.849 78.52 397.545 76.656C396.216 74.6383 395.547 72.2575 395.631 69.843C395.582 64.9904 397.761 60.3833 401.543 57.343C405.484 53.965 411.021 52.276 418.152 52.276C424.757 52.276 430.031 53.815 433.973 56.893C437.938 60.0122 440.477 64.6003 441.012 69.617H427.383C426.556 65.489 423.441 63.4247 418.037 63.424C415.841 63.2885 413.656 63.8392 411.787 65C410.43 65.8526 409.6 67.3381 409.587 68.941C409.587 70.5943 410.675 71.9083 412.852 72.883C415.65 74.0555 418.554 74.9596 421.523 75.583C425.426 76.4843 429.011 77.479 432.277 78.567C435.26 79.4793 437.956 81.1477 440.103 83.41C442.055 85.5487 443.031 88.6077 443.032 92.587C443.144 95.9099 442.198 99.1826 440.332 101.934C438.303 104.835 435.491 107.1 432.224 108.465C428.27 110.123 424.011 110.928 419.725 110.827Z" fill="#2E23FB"/>
<path fill-rule="evenodd" clip-rule="evenodd" d="M457.054 42.587C458.819 44.193 461.144 45.0422 463.529 44.952C465.912 45.0411 468.236 44.192 470 42.587C471.671 41.0594 472.597 38.8821 472.538 36.619C472.604 34.3715 471.677 32.209 470.004 30.707C466.236 27.6298 460.822 27.6298 457.054 30.707C455.381 32.2089 454.454 34.3715 454.52 36.619C454.46 38.8815 455.385 41.0587 457.054 42.587ZM456.322 53.623V109.476H470.736V53.623H456.322Z" fill="#2E23FB"/>
<path d="M510.712 109.476C504.856 109.476 500.164 108.05 496.636 105.197C493.108 102.344 491.344 97.2777 491.343 89.997V65.672H481.771V53.623H491.343L493.033 38.646H505.757V53.623H520.846V65.672H505.757V90.108C505.757 92.81 506.339 94.668 507.503 95.682C508.667 96.696 510.675 97.2027 513.527 97.202H520.509V109.476H510.712Z" fill="#2E23FB"/>
<path d="M540.214 134.25L553.164 105.76H549.786L528.053 53.623H543.705L559.357 92.923L575.686 53.623H591L555.529 134.25H540.214Z" fill="#2E23FB"/>
</svg>
