<svg width="120" height="120" viewBox="0 0 120 120" fill="none" xmlns="http://www.w3.org/2000/svg">
<g clip-path="url(#clip0_1_10569)">
<path d="M59.1448 57.8043C67.086 57.8043 73.9625 54.9561 79.5811 49.3367C85.1997 43.7181 88.0479 36.8434 88.0479 28.9013C88.0479 20.9618 85.1997 14.0862 79.5802 8.46585C73.9607 2.84819 67.0851 0 59.1448 0C51.2026 0 44.3279 2.84819 38.7094 8.46676C33.0908 14.0853 30.2417 20.9609 30.2417 28.9013C30.2417 36.8434 33.0908 43.719 38.7103 49.3376C44.3298 54.9552 51.2054 57.8043 59.1448 57.8043Z" fill="#919191"/>
<path d="M109.717 92.2736C109.555 89.9354 109.228 87.3847 108.745 84.6912C108.258 81.9776 107.631 79.4123 106.88 77.0677C106.105 74.6443 105.05 72.2511 103.746 69.9577C102.393 67.5774 100.804 65.5046 99.0203 63.799C97.1554 62.0146 94.8721 60.58 92.2317 59.5336C89.6005 58.4926 86.6846 57.9653 83.5654 57.9653C82.3404 57.9653 81.1557 58.4679 78.8678 59.9575C77.4597 60.8757 75.8127 61.9377 73.9743 63.1123C72.4024 64.1139 70.2729 65.0523 67.6426 65.9019C65.0764 66.7323 62.4708 67.1535 59.8991 67.1535C57.3274 67.1535 54.7227 66.7323 52.1538 65.9019C49.5262 65.0533 47.3967 64.1148 45.8266 63.1133C44.0056 61.9496 42.3577 60.8876 40.9285 59.9565C38.6434 58.467 37.4578 57.9644 36.2328 57.9644C33.1127 57.9644 30.1977 58.4926 27.5674 59.5345C24.9288 60.5791 22.6446 62.0137 20.7778 63.7999C18.9953 65.5064 17.4051 67.5783 16.0537 69.9577C14.751 72.2511 13.6963 74.6434 12.9199 77.0686C12.1701 79.4132 11.543 81.9776 11.0559 84.6912C10.5734 87.381 10.2457 89.9326 10.0836 92.2764C9.92432 94.5725 9.84375 96.9556 9.84375 99.3625C9.84375 105.627 11.835 110.698 15.7617 114.438C19.6399 118.128 24.7714 120 31.0116 120H88.7921C95.0323 120 100.162 118.129 104.041 114.438C107.969 110.7 109.96 105.628 109.96 99.3616C109.959 96.9437 109.878 94.5588 109.717 92.2736Z" fill="#919191"/>
</g>
<defs>
<clipPath id="clip0_1_10569">
<rect width="120" height="120" fill="white"/>
</clipPath>
</defs>
</svg>
